<svg xmlns="http://www.w3.org/2000/svg" xmlns:xlink="http://www.w3.org/1999/xlink" width="500" zoomAndPan="magnify" viewBox="0 0 375 374.999991" height="500" preserveAspectRatio="xMidYMid meet" version="1.0"><defs><g/><clipPath id="8e48b17e28"><path d="M 180 37.5 L 325.992188 37.5 L 325.992188 192 L 180 192 Z M 180 37.5 " clip-rule="nonzero"/></clipPath><clipPath id="841a3602a5"><path d="M 23.742188 37.5 L 170 37.5 L 170 192 L 23.742188 192 Z M 23.742188 37.5 " clip-rule="nonzero"/></clipPath><clipPath id="6b79c3ad71"><path d="M 97 59 L 253 59 L 253 222.75 L 97 222.75 Z M 97 59 " clip-rule="nonzero"/></clipPath><clipPath id="8e54b69813"><path d="M 99.335938 37.5 L 337.835938 37.5 L 337.835938 306.75 L 99.335938 306.75 Z M 99.335938 37.5 " clip-rule="nonzero"/></clipPath></defs><g clip-path="url(#8e48b17e28)"><path fill="#287777" d="M 325.867188 171.695312 C 325.367188 158.1875 317.867188 145.925781 305.554688 136.878906 C 299.863281 132.703125 293.148438 129.210938 285.617188 126.605469 C 296.636719 117.367188 303.648438 103.503906 303.648438 87.992188 C 303.648438 60.183594 281.121094 37.636719 253.332031 37.636719 C 225.539062 37.636719 203.011719 60.183594 203.011719 87.992188 C 203.011719 103.503906 210.027344 117.367188 221.042969 126.605469 C 213.511719 129.210938 206.804688 132.703125 201.117188 136.878906 C 188.800781 145.921875 181.3125 158.1875 180.792969 171.695312 C 180.613281 176.433594 181.132812 180.425781 182.238281 183.828125 C 201.058594 188.484375 225.988281 191.316406 253.332031 191.316406 C 280.742188 191.316406 305.726562 188.46875 324.566406 183.796875 C 325.574219 180.398438 326.042969 176.414062 325.867188 171.695312 " fill-opacity="1" fill-rule="nonzero"/></g><g clip-path="url(#841a3602a5)"><path fill="#287777" d="M 169.03125 171.695312 C 168.527344 158.1875 161.035156 145.925781 148.710938 136.878906 C 143.023438 132.703125 136.308594 129.210938 128.78125 126.605469 C 139.796875 117.367188 146.808594 103.503906 146.808594 87.992188 C 146.808594 60.183594 124.28125 37.636719 96.492188 37.636719 C 68.699219 37.636719 46.171875 60.183594 46.171875 87.992188 C 46.171875 103.503906 53.1875 117.367188 64.207031 126.605469 C 56.671875 129.210938 49.964844 132.703125 44.277344 136.878906 C 31.964844 145.921875 24.472656 158.1875 23.957031 171.695312 C 23.773438 176.433594 24.296875 180.425781 25.398438 183.828125 C 44.222656 188.484375 69.148438 191.316406 96.492188 191.316406 C 123.90625 191.316406 148.886719 188.46875 167.726562 183.796875 C 168.738281 180.398438 169.207031 176.414062 169.03125 171.695312 " fill-opacity="1" fill-rule="nonzero"/></g><g clip-path="url(#6b79c3ad71)"><path fill="#40bfbc" d="M 252.023438 201.847656 C 251.492188 187.492188 243.519531 174.449219 230.421875 164.835938 C 224.378906 160.394531 217.242188 156.6875 209.234375 153.914062 C 220.949219 144.097656 228.398438 129.359375 228.398438 112.867188 C 228.398438 83.308594 204.453125 59.339844 174.914062 59.339844 C 145.367188 59.339844 121.421875 83.308594 121.421875 112.867188 C 121.421875 129.359375 128.875 144.097656 140.589844 153.917969 C 132.582031 156.6875 125.449219 160.394531 119.40625 164.835938 C 106.316406 174.449219 98.351562 187.492188 97.800781 201.847656 C 97.609375 206.886719 98.164062 211.132812 99.335938 214.742188 C 119.347656 219.695312 145.84375 222.707031 174.914062 222.707031 C 204.050781 222.707031 230.609375 219.675781 250.632812 214.710938 C 251.710938 211.09375 252.207031 206.863281 252.023438 201.847656 " fill-opacity="1" fill-rule="nonzero"/></g><g clip-path="url(#8e54b69813)"><path fill="#000000" d="M 210.953125 84.09375 C 225.769531 93.5 236.097656 109.179688 237.894531 127.101562 C 243.730469 129.789062 250.46875 131.582031 257.652344 131.582031 C 283.695312 131.582031 304.800781 110.523438 304.800781 84.539062 C 304.800781 58.554688 283.695312 37.5 257.652344 37.5 C 232.058594 37.949219 210.953125 58.554688 210.953125 84.09375 Z M 179.96875 179.964844 C 206.011719 179.964844 227.117188 158.910156 227.117188 132.925781 C 227.117188 106.941406 206.011719 85.882812 179.96875 85.882812 C 153.925781 85.882812 132.820312 106.941406 132.820312 132.925781 C 132.820312 158.910156 153.925781 179.964844 179.96875 179.964844 Z M 199.726562 183.101562 L 159.761719 183.101562 C 126.535156 183.101562 99.59375 209.980469 99.59375 243.132812 L 99.59375 292.863281 L 102.734375 293.757812 C 134.167969 303.613281 162.007812 306.75 184.460938 306.75 C 228.464844 306.75 254.058594 294.207031 255.855469 293.308594 L 259 291.519531 L 259.449219 291.519531 L 259.449219 243.132812 C 259.898438 209.980469 232.957031 183.101562 199.726562 183.101562 Z M 277.410156 134.714844 L 237.894531 134.714844 C 237.445312 150.398438 230.710938 164.734375 219.933594 175.035156 C 249.570312 183.996094 271.125 210.878906 271.125 243.132812 L 271.125 257.917969 C 310.1875 256.574219 332.640625 245.375 333.988281 244.925781 L 337.132812 243.132812 L 337.582031 243.132812 L 337.582031 194.75 C 337.582031 161.597656 310.636719 134.714844 277.410156 134.714844 Z M 277.410156 134.714844 " fill-opacity="1" fill-rule="nonzero"/></g><g fill="#ffffff" fill-opacity="1"><g transform="translate(134.077809, 245.851022)"><g><path d="M 3.359375 -14 C 4.566406 -14.195312 5.585938 -14.023438 6.421875 -13.484375 C 7.253906 -12.953125 7.8125 -12.117188 8.09375 -10.984375 L 6.125 -10.671875 C 5.96875 -11.265625 5.671875 -11.695312 5.234375 -11.96875 C 4.804688 -12.25 4.273438 -12.335938 3.640625 -12.234375 C 2.972656 -12.128906 2.472656 -11.847656 2.140625 -11.390625 C 1.816406 -10.941406 1.707031 -10.382812 1.8125 -9.71875 L 2.703125 -4.265625 C 2.816406 -3.597656 3.09375 -3.101562 3.53125 -2.78125 C 3.976562 -2.457031 4.539062 -2.351562 5.21875 -2.46875 C 5.863281 -2.570312 6.34375 -2.828125 6.65625 -3.234375 C 6.976562 -3.640625 7.125 -4.144531 7.09375 -4.75 L 9.0625 -5.0625 C 9.09375 -4.488281 9.039062 -3.957031 8.90625 -3.46875 C 8.78125 -2.988281 8.5625 -2.5625 8.25 -2.1875 C 7.9375 -1.8125 7.550781 -1.492188 7.09375 -1.234375 C 6.632812 -0.972656 6.101562 -0.796875 5.5 -0.703125 C 4.875 -0.597656 4.289062 -0.597656 3.75 -0.703125 C 3.21875 -0.804688 2.742188 -1 2.328125 -1.28125 C 1.910156 -1.570312 1.5625 -1.941406 1.28125 -2.390625 C 1.007812 -2.847656 0.828125 -3.367188 0.734375 -3.953125 L -0.15625 -9.40625 C -0.25 -10.007812 -0.234375 -10.5625 -0.109375 -11.0625 C 0.00390625 -11.570312 0.210938 -12.023438 0.515625 -12.421875 C 0.816406 -12.828125 1.207031 -13.164062 1.6875 -13.4375 C 2.164062 -13.707031 2.722656 -13.894531 3.359375 -14 Z M 3.359375 -14 "/></g></g></g><g fill="#ffffff" fill-opacity="1"><g transform="translate(144.846365, 244.101358)"><g><path d="M 2.59375 -4.234375 C 2.707031 -3.566406 2.988281 -3.070312 3.4375 -2.75 C 3.882812 -2.425781 4.445312 -2.320312 5.125 -2.4375 C 5.800781 -2.539062 6.300781 -2.816406 6.625 -3.265625 C 6.957031 -3.722656 7.066406 -4.285156 6.953125 -4.953125 L 6.5625 -7.40625 C 6.445312 -8.082031 6.160156 -8.578125 5.703125 -8.890625 C 5.253906 -9.203125 4.691406 -9.304688 4.015625 -9.203125 C 3.359375 -9.097656 2.863281 -8.816406 2.53125 -8.359375 C 2.207031 -7.898438 2.097656 -7.34375 2.203125 -6.6875 Z M 0.234375 -6.375 C 0.140625 -6.957031 0.148438 -7.503906 0.265625 -8.015625 C 0.390625 -8.535156 0.601562 -8.988281 0.90625 -9.375 C 1.21875 -9.769531 1.613281 -10.101562 2.09375 -10.375 C 2.570312 -10.644531 3.117188 -10.832031 3.734375 -10.9375 C 4.378906 -11.039062 4.96875 -11.039062 5.5 -10.9375 C 6.039062 -10.832031 6.519531 -10.640625 6.9375 -10.359375 C 7.351562 -10.085938 7.695312 -9.722656 7.96875 -9.265625 C 8.25 -8.816406 8.4375 -8.300781 8.53125 -7.71875 L 8.921875 -5.265625 C 9.015625 -4.679688 9.003906 -4.128906 8.890625 -3.609375 C 8.773438 -3.097656 8.5625 -2.644531 8.25 -2.25 C 7.945312 -1.851562 7.554688 -1.519531 7.078125 -1.25 C 6.609375 -0.976562 6.050781 -0.789062 5.40625 -0.6875 C 4.789062 -0.582031 4.210938 -0.582031 3.671875 -0.6875 C 3.128906 -0.789062 2.644531 -0.984375 2.21875 -1.265625 C 1.800781 -1.554688 1.453125 -1.925781 1.171875 -2.375 C 0.898438 -2.820312 0.71875 -3.335938 0.625 -3.921875 Z M 0.234375 -6.375 "/></g></g></g><g fill="#ffffff" fill-opacity="1"><g transform="translate(155.61492, 242.351695)"><g><path d="M 1.421875 -0.234375 L -0.1875 -10.109375 L 1.671875 -10.40625 L 1.953125 -8.703125 L 2.109375 -8.734375 C 2.148438 -9.347656 2.375 -9.859375 2.78125 -10.265625 C 3.1875 -10.671875 3.742188 -10.929688 4.453125 -11.046875 C 4.929688 -11.128906 5.382812 -11.113281 5.8125 -11 C 6.25 -10.894531 6.632812 -10.710938 6.96875 -10.453125 C 7.300781 -10.191406 7.578125 -9.851562 7.796875 -9.4375 C 8.023438 -9.03125 8.179688 -8.554688 8.265625 -8.015625 L 9.328125 -1.515625 L 7.375 -1.203125 L 6.359375 -7.4375 C 6.253906 -8.101562 5.992188 -8.59375 5.578125 -8.90625 C 5.171875 -9.226562 4.65625 -9.335938 4.03125 -9.234375 C 3.414062 -9.140625 2.957031 -8.863281 2.65625 -8.40625 C 2.363281 -7.957031 2.273438 -7.390625 2.390625 -6.703125 L 3.390625 -0.546875 Z M 1.421875 -0.234375 "/></g></g></g><g fill="#ffffff" fill-opacity="1"><g transform="translate(166.383475, 240.602031)"><g><path d="M 1.421875 -0.234375 L -0.1875 -10.109375 L 1.671875 -10.40625 L 1.953125 -8.703125 L 2.109375 -8.734375 C 2.148438 -9.347656 2.375 -9.859375 2.78125 -10.265625 C 3.1875 -10.671875 3.742188 -10.929688 4.453125 -11.046875 C 4.929688 -11.128906 5.382812 -11.113281 5.8125 -11 C 6.25 -10.894531 6.632812 -10.710938 6.96875 -10.453125 C 7.300781 -10.191406 7.578125 -9.851562 7.796875 -9.4375 C 8.023438 -9.03125 8.179688 -8.554688 8.265625 -8.015625 L 9.328125 -1.515625 L 7.375 -1.203125 L 6.359375 -7.4375 C 6.253906 -8.101562 5.992188 -8.59375 5.578125 -8.90625 C 5.171875 -9.226562 4.65625 -9.335938 4.03125 -9.234375 C 3.414062 -9.140625 2.957031 -8.863281 2.65625 -8.40625 C 2.363281 -7.957031 2.273438 -7.390625 2.390625 -6.703125 L 3.390625 -0.546875 Z M 1.421875 -0.234375 "/></g></g></g><g fill="#ffffff" fill-opacity="1"><g transform="translate(177.15203, 238.852367)"><g><path d="M 5.40625 -0.6875 C 4.78125 -0.582031 4.195312 -0.578125 3.65625 -0.671875 C 3.125 -0.773438 2.648438 -0.960938 2.234375 -1.234375 C 1.816406 -1.515625 1.46875 -1.875 1.1875 -2.3125 C 0.914062 -2.75 0.734375 -3.257812 0.640625 -3.84375 L 0.21875 -6.4375 C 0.125 -7.019531 0.132812 -7.5625 0.25 -8.0625 C 0.375 -8.570312 0.59375 -9.019531 0.90625 -9.40625 C 1.21875 -9.789062 1.609375 -10.113281 2.078125 -10.375 C 2.554688 -10.644531 3.109375 -10.832031 3.734375 -10.9375 C 4.378906 -11.039062 4.96875 -11.039062 5.5 -10.9375 C 6.039062 -10.84375 6.515625 -10.660156 6.921875 -10.390625 C 7.335938 -10.117188 7.679688 -9.757812 7.953125 -9.3125 C 8.222656 -8.875 8.40625 -8.363281 8.5 -7.78125 L 8.796875 -5.953125 L 2.484375 -4.921875 L 2.59375 -4.234375 C 2.707031 -3.523438 2.988281 -3.003906 3.4375 -2.671875 C 3.894531 -2.335938 4.460938 -2.226562 5.140625 -2.34375 C 5.648438 -2.425781 6.070312 -2.570312 6.40625 -2.78125 C 6.75 -3 6.976562 -3.273438 7.09375 -3.609375 L 9.046875 -3.921875 C 9.003906 -3.503906 8.890625 -3.117188 8.703125 -2.765625 C 8.515625 -2.421875 8.265625 -2.109375 7.953125 -1.828125 C 7.640625 -1.546875 7.265625 -1.304688 6.828125 -1.109375 C 6.398438 -0.910156 5.925781 -0.769531 5.40625 -0.6875 Z M 6.625 -7.078125 L 6.5625 -7.46875 C 6.457031 -8.144531 6.179688 -8.644531 5.734375 -8.96875 C 5.285156 -9.300781 4.707031 -9.410156 4 -9.296875 C 3.320312 -9.179688 2.820312 -8.894531 2.5 -8.4375 C 2.1875 -7.988281 2.082031 -7.425781 2.1875 -6.75 L 2.25 -6.359375 Z M 6.625 -7.078125 "/></g></g></g><g fill="#ffffff" fill-opacity="1"><g transform="translate(187.920586, 237.102703)"><g><path d="M 5.53125 -0.703125 C 4.90625 -0.597656 4.320312 -0.597656 3.78125 -0.703125 C 3.238281 -0.804688 2.757812 -0.992188 2.34375 -1.265625 C 1.9375 -1.535156 1.597656 -1.894531 1.328125 -2.34375 C 1.066406 -2.800781 0.890625 -3.320312 0.796875 -3.90625 L 0.390625 -6.421875 C 0.285156 -7.003906 0.285156 -7.550781 0.390625 -8.0625 C 0.503906 -8.570312 0.710938 -9.023438 1.015625 -9.421875 C 1.328125 -9.816406 1.722656 -10.144531 2.203125 -10.40625 C 2.679688 -10.664062 3.234375 -10.847656 3.859375 -10.953125 C 4.429688 -11.046875 4.960938 -11.050781 5.453125 -10.96875 C 5.953125 -10.894531 6.410156 -10.734375 6.828125 -10.484375 C 7.242188 -10.242188 7.597656 -9.929688 7.890625 -9.546875 C 8.191406 -9.171875 8.421875 -8.722656 8.578125 -8.203125 L 6.609375 -7.890625 C 6.441406 -8.390625 6.132812 -8.757812 5.6875 -9 C 5.238281 -9.238281 4.722656 -9.3125 4.140625 -9.21875 C 3.460938 -9.113281 2.960938 -8.84375 2.640625 -8.40625 C 2.328125 -7.96875 2.226562 -7.414062 2.34375 -6.75 L 2.75 -4.234375 C 2.851562 -3.554688 3.125 -3.0625 3.5625 -2.75 C 4.007812 -2.445312 4.570312 -2.347656 5.25 -2.453125 C 5.832031 -2.546875 6.296875 -2.78125 6.640625 -3.15625 C 6.984375 -3.53125 7.15625 -3.972656 7.15625 -4.484375 L 9.125 -4.796875 C 9.132812 -3.722656 8.820312 -2.816406 8.1875 -2.078125 C 7.550781 -1.347656 6.664062 -0.890625 5.53125 -0.703125 Z M 5.53125 -0.703125 "/></g></g></g><g fill="#ffffff" fill-opacity="1"><g transform="translate(198.689141, 235.35304)"><g><path d="M -0.671875 -10.03125 L 2.109375 -10.484375 L 1.625 -13.53125 L 3.59375 -13.84375 L 4.078125 -10.796875 L 7.875 -11.421875 L 8.171875 -9.640625 L 4.375 -9.015625 L 5.21875 -3.765625 C 5.28125 -3.429688 5.421875 -3.1875 5.640625 -3.03125 C 5.859375 -2.875 6.140625 -2.828125 6.484375 -2.890625 L 9 -3.296875 L 9.296875 -1.515625 L 6.6875 -1.09375 C 5.78125 -0.9375 5.015625 -1.070312 4.390625 -1.5 C 3.773438 -1.9375 3.394531 -2.585938 3.25 -3.453125 L 2.40625 -8.703125 L -0.375 -8.25 Z M -0.671875 -10.03125 "/></g></g></g><g fill="#ffffff" fill-opacity="1"><g transform="translate(143.468207, 269.654646)"><g><path d="M 3.78125 -13.875 C 4.394531 -13.976562 4.96875 -13.976562 5.5 -13.875 C 6.039062 -13.78125 6.519531 -13.59375 6.9375 -13.3125 C 7.351562 -13.03125 7.695312 -12.664062 7.96875 -12.21875 C 8.25 -11.78125 8.4375 -11.269531 8.53125 -10.6875 C 8.625 -10.113281 8.609375 -9.570312 8.484375 -9.0625 C 8.367188 -8.550781 8.15625 -8.097656 7.84375 -7.703125 C 7.539062 -7.316406 7.148438 -6.988281 6.671875 -6.71875 C 6.191406 -6.457031 5.644531 -6.273438 5.03125 -6.171875 L 2.578125 -5.78125 L 3.421875 -0.5625 L 1.453125 -0.234375 L -0.640625 -13.15625 Z M 1.59375 -11.796875 L 2.296875 -7.46875 L 4.75 -7.859375 C 5.382812 -7.960938 5.863281 -8.242188 6.1875 -8.703125 C 6.507812 -9.160156 6.617188 -9.710938 6.515625 -10.359375 C 6.410156 -11.015625 6.128906 -11.507812 5.671875 -11.84375 C 5.222656 -12.175781 4.679688 -12.289062 4.046875 -12.1875 Z M 1.59375 -11.796875 "/></g></g></g><g fill="#ffffff" fill-opacity="1"><g transform="translate(154.236762, 267.904982)"><g><path d="M 5.40625 -0.6875 C 4.78125 -0.582031 4.195312 -0.578125 3.65625 -0.671875 C 3.125 -0.773438 2.648438 -0.960938 2.234375 -1.234375 C 1.816406 -1.515625 1.46875 -1.875 1.1875 -2.3125 C 0.914062 -2.75 0.734375 -3.257812 0.640625 -3.84375 L 0.21875 -6.4375 C 0.125 -7.019531 0.132812 -7.5625 0.25 -8.0625 C 0.375 -8.570312 0.59375 -9.019531 0.90625 -9.40625 C 1.21875 -9.789062 1.609375 -10.113281 2.078125 -10.375 C 2.554688 -10.644531 3.109375 -10.832031 3.734375 -10.9375 C 4.378906 -11.039062 4.96875 -11.039062 5.5 -10.9375 C 6.039062 -10.84375 6.515625 -10.660156 6.921875 -10.390625 C 7.335938 -10.117188 7.679688 -9.757812 7.953125 -9.3125 C 8.222656 -8.875 8.40625 -8.363281 8.5 -7.78125 L 8.796875 -5.953125 L 2.484375 -4.921875 L 2.59375 -4.234375 C 2.707031 -3.523438 2.988281 -3.003906 3.4375 -2.671875 C 3.894531 -2.335938 4.460938 -2.226562 5.140625 -2.34375 C 5.648438 -2.425781 6.070312 -2.570312 6.40625 -2.78125 C 6.75 -3 6.976562 -3.273438 7.09375 -3.609375 L 9.046875 -3.921875 C 9.003906 -3.503906 8.890625 -3.117188 8.703125 -2.765625 C 8.515625 -2.421875 8.265625 -2.109375 7.953125 -1.828125 C 7.640625 -1.546875 7.265625 -1.304688 6.828125 -1.109375 C 6.398438 -0.910156 5.925781 -0.769531 5.40625 -0.6875 Z M 6.625 -7.078125 L 6.5625 -7.46875 C 6.457031 -8.144531 6.179688 -8.644531 5.734375 -8.96875 C 5.285156 -9.300781 4.707031 -9.410156 4 -9.296875 C 3.320312 -9.179688 2.820312 -8.894531 2.5 -8.4375 C 2.1875 -7.988281 2.082031 -7.425781 2.1875 -6.75 L 2.25 -6.359375 Z M 6.625 -7.078125 "/></g></g></g><g fill="#ffffff" fill-opacity="1"><g transform="translate(165.005317, 266.155318)"><g><path d="M 2.59375 -4.234375 C 2.707031 -3.566406 2.988281 -3.070312 3.4375 -2.75 C 3.882812 -2.425781 4.445312 -2.320312 5.125 -2.4375 C 5.800781 -2.539062 6.300781 -2.816406 6.625 -3.265625 C 6.957031 -3.722656 7.066406 -4.285156 6.953125 -4.953125 L 6.5625 -7.40625 C 6.445312 -8.082031 6.160156 -8.578125 5.703125 -8.890625 C 5.253906 -9.203125 4.691406 -9.304688 4.015625 -9.203125 C 3.359375 -9.097656 2.863281 -8.816406 2.53125 -8.359375 C 2.207031 -7.898438 2.097656 -7.34375 2.203125 -6.6875 Z M 0.234375 -6.375 C 0.140625 -6.957031 0.148438 -7.503906 0.265625 -8.015625 C 0.390625 -8.535156 0.601562 -8.988281 0.90625 -9.375 C 1.21875 -9.769531 1.613281 -10.101562 2.09375 -10.375 C 2.570312 -10.644531 3.117188 -10.832031 3.734375 -10.9375 C 4.378906 -11.039062 4.96875 -11.039062 5.5 -10.9375 C 6.039062 -10.832031 6.519531 -10.640625 6.9375 -10.359375 C 7.351562 -10.085938 7.695312 -9.722656 7.96875 -9.265625 C 8.25 -8.816406 8.4375 -8.300781 8.53125 -7.71875 L 8.921875 -5.265625 C 9.015625 -4.679688 9.003906 -4.128906 8.890625 -3.609375 C 8.773438 -3.097656 8.5625 -2.644531 8.25 -2.25 C 7.945312 -1.851562 7.554688 -1.519531 7.078125 -1.25 C 6.609375 -0.976562 6.050781 -0.789062 5.40625 -0.6875 C 4.789062 -0.582031 4.210938 -0.582031 3.671875 -0.6875 C 3.128906 -0.789062 2.644531 -0.984375 2.21875 -1.265625 C 1.800781 -1.554688 1.453125 -1.925781 1.171875 -2.375 C 0.898438 -2.820312 0.71875 -3.335938 0.625 -3.921875 Z M 0.234375 -6.375 "/></g></g></g><g fill="#ffffff" fill-opacity="1"><g transform="translate(175.773872, 264.405655)"><g><path d="M 1.703125 -10.40625 L 1.984375 -8.703125 L 2.140625 -8.734375 C 2.171875 -9.347656 2.394531 -9.859375 2.8125 -10.265625 C 3.226562 -10.679688 3.796875 -10.945312 4.515625 -11.0625 C 5.015625 -11.144531 5.488281 -11.128906 5.9375 -11.015625 C 6.394531 -10.898438 6.796875 -10.695312 7.140625 -10.40625 C 7.484375 -10.125 7.773438 -9.757812 8.015625 -9.3125 C 8.253906 -8.863281 8.425781 -8.34375 8.53125 -7.75 L 8.921875 -5.265625 C 9.023438 -4.671875 9.035156 -4.113281 8.953125 -3.59375 C 8.867188 -3.082031 8.707031 -2.632812 8.46875 -2.25 C 8.226562 -1.875 7.910156 -1.5625 7.515625 -1.3125 C 7.128906 -1.0625 6.6875 -0.894531 6.1875 -0.8125 C 5.46875 -0.695312 4.84375 -0.765625 4.3125 -1.015625 C 3.789062 -1.265625 3.414062 -1.6875 3.1875 -2.28125 L 3.03125 -2.25 C 3.039062 -2.207031 3.0625 -2.128906 3.09375 -2.015625 C 3.132812 -1.898438 3.171875 -1.757812 3.203125 -1.59375 C 3.242188 -1.425781 3.28125 -1.25 3.3125 -1.0625 C 3.34375 -0.882812 3.375 -0.710938 3.40625 -0.546875 L 3.890625 2.421875 L 1.921875 2.734375 L -0.171875 -10.109375 Z M 2.796875 -4.265625 C 2.910156 -3.609375 3.179688 -3.113281 3.609375 -2.78125 C 4.035156 -2.445312 4.5625 -2.332031 5.1875 -2.4375 C 5.851562 -2.539062 6.34375 -2.820312 6.65625 -3.28125 C 6.96875 -3.738281 7.066406 -4.300781 6.953125 -4.96875 L 6.5625 -7.390625 C 6.445312 -8.078125 6.171875 -8.582031 5.734375 -8.90625 C 5.296875 -9.226562 4.742188 -9.335938 4.078125 -9.234375 C 3.460938 -9.128906 3.003906 -8.847656 2.703125 -8.390625 C 2.398438 -7.929688 2.300781 -7.367188 2.40625 -6.703125 Z M 2.796875 -4.265625 "/></g></g></g><g fill="#ffffff" fill-opacity="1"><g transform="translate(186.542428, 262.655991)"><g><path d="M 3.671875 -14.046875 L 5.296875 -3.984375 C 5.367188 -3.585938 5.53125 -3.296875 5.78125 -3.109375 C 6.03125 -2.921875 6.34375 -2.859375 6.71875 -2.921875 L 9.671875 -3.40625 L 9.96875 -1.625 L 6.921875 -1.125 C 5.953125 -0.96875 5.148438 -1.117188 4.515625 -1.578125 C 3.878906 -2.035156 3.484375 -2.734375 3.328125 -3.671875 L 1.984375 -11.9375 L -1.21875 -11.421875 L -1.5 -13.21875 Z M 3.671875 -14.046875 "/></g></g></g><g fill="#ffffff" fill-opacity="1"><g transform="translate(197.310983, 260.906327)"><g><path d="M 5.40625 -0.6875 C 4.78125 -0.582031 4.195312 -0.578125 3.65625 -0.671875 C 3.125 -0.773438 2.648438 -0.960938 2.234375 -1.234375 C 1.816406 -1.515625 1.46875 -1.875 1.1875 -2.3125 C 0.914062 -2.75 0.734375 -3.257812 0.640625 -3.84375 L 0.21875 -6.4375 C 0.125 -7.019531 0.132812 -7.5625 0.25 -8.0625 C 0.375 -8.570312 0.59375 -9.019531 0.90625 -9.40625 C 1.21875 -9.789062 1.609375 -10.113281 2.078125 -10.375 C 2.554688 -10.644531 3.109375 -10.832031 3.734375 -10.9375 C 4.378906 -11.039062 4.96875 -11.039062 5.5 -10.9375 C 6.039062 -10.84375 6.515625 -10.660156 6.921875 -10.390625 C 7.335938 -10.117188 7.679688 -9.757812 7.953125 -9.3125 C 8.222656 -8.875 8.40625 -8.363281 8.5 -7.78125 L 8.796875 -5.953125 L 2.484375 -4.921875 L 2.59375 -4.234375 C 2.707031 -3.523438 2.988281 -3.003906 3.4375 -2.671875 C 3.894531 -2.335938 4.460938 -2.226562 5.140625 -2.34375 C 5.648438 -2.425781 6.070312 -2.570312 6.40625 -2.78125 C 6.75 -3 6.976562 -3.273438 7.09375 -3.609375 L 9.046875 -3.921875 C 9.003906 -3.503906 8.890625 -3.117188 8.703125 -2.765625 C 8.515625 -2.421875 8.265625 -2.109375 7.953125 -1.828125 C 7.640625 -1.546875 7.265625 -1.304688 6.828125 -1.109375 C 6.398438 -0.910156 5.925781 -0.769531 5.40625 -0.6875 Z M 6.625 -7.078125 L 6.5625 -7.46875 C 6.457031 -8.144531 6.179688 -8.644531 5.734375 -8.96875 C 5.285156 -9.300781 4.707031 -9.410156 4 -9.296875 C 3.320312 -9.179688 2.820312 -8.894531 2.5 -8.4375 C 2.1875 -7.988281 2.082031 -7.425781 2.1875 -6.75 L 2.25 -6.359375 Z M 6.625 -7.078125 "/></g></g></g></svg>